# xmcd
#
# Track frame offsets: 
#        150
#        20877
#        36046
#        56832
#        77374
#        94747
#        119149
#        133792
#        147154
#        170606
#
# Disc length: 2610 seconds
#
# Revision: 1
# Processed by: cddbd v1.5.2PL0 Copyright (c) Steve Scherf et al.
# Submitted via: ExactAudioCopy v1.3
#
DISCID=8d0a300a
DTITLE=Vladimir And His Orchestra - New Sound In Latin Jazz
DYEAR=1971
DGENRE=Jazz
TTITLE0=Mambo Moderno
TTITLE1=St. John's Guaguanco
TTITLE2=Suzy's Bossa Nova
TTITLE3=Mambito
TTITLE4=Mi Son Cha
TTITLE5=Chonga
TTITLE6=Baby Boo Boogaloo
TTITLE7=Lo Que Voy A Tocar
TTITLE8=Mambo At The Cave
TTITLE9=Camelot Cha-Cha
EXTD=
EXTT0=
EXTT1=
EXTT2=
EXTT3=
EXTT4=
EXTT5=
EXTT6=
EXTT7=
EXTT8=
EXTT9=
PLAYORDER=
